<svg enable-background="new 0 0 2000 2000" viewBox="0 0 2000 2000" xmlns="http://www.w3.org/2000/svg" xmlns:xlink="http://www.w3.org/1999/xlink"><linearGradient id="a"><stop offset="0" stop-color="#717171"/><stop offset="1" stop-color="#b2b2b2" stop-opacity="0"/></linearGradient><linearGradient id="b" gradientUnits="userSpaceOnUse" x1="600.65" x2="1206.03" xlink:href="#a" y1="641.8" y2="641.8"/><linearGradient id="c" gradientUnits="userSpaceOnUse" x1="1322.8966" x2="961.2982" xlink:href="#a" y1="-385.7699" y2="1664.9562"/><path d="m1662.65 1006.49c0 372.8-302.21 675-675 675h-387v-450h387c124.27 0 225-100.73 225-225 0-18.75-2.29-36.97-6.62-54.38-24.32-97.99-112.86-170.62-218.38-170.62h-387v-450h387c76.43 0 149.88 12.7 218.38 36.12 265.62 90.76 456.62 342.52 456.62 638.88z" fill="#b2b2b2"/><path d="m1206.03 367.61v584.5c-24.32-97.99-112.86-170.62-218.38-170.62h-387v-450h387c76.43 0 149.88 12.7 218.38 36.12z" fill="url(#b)"/><path d="m1662.65 1006.49c0 372.8-302.21 675-675 675h-387v-450h387c124.27 0 225-100.73 225-225 0-124.26-100.73-225-225-225h-387v-450h387c372.79 0 675 302.21 675 675z" fill="url(#c)"/><path d="m825.65 556.49v900c0 124.27-100.73 225-225 225-124.26 0-225-100.73-225-225v-900c0-124.26 100.74-225 225-225 124.27 0 225 100.74 225 225z" fill="#b2b2b2"/></svg>