<svg enable-background="new 0 0 7132.97 2000" viewBox="0 0 7132.97 2000" xmlns="http://www.w3.org/2000/svg"><g fill="#6446fa"><path d="m6685.68 1471.09c0 106.86-86.63 193.5-193.5 193.5h-607.49c-124.27 0-225-100.74-225-225v-900c0-124.27 100.73-225 225-225h607.49c106.87 0 193.5 86.63 193.5 193.5 0 106.86-86.63 193.5-193.5 193.5h-382.49v146.35h219.7c78.23 0 141.65 63.42 141.65 141.65s-63.42 141.64-141.65 141.64h-219.7v146.36h382.49c106.87 0 193.5 86.63 193.5 193.5z"/><path d="m5436.48 650.07-490.58 897.4c-59.6 109.04-196.31 149.11-305.35 89.5-39.98-21.86-70.68-54.08-90.59-91.5l-489.22-894.93c-37.04-65.47-40.4-148.02-1.66-218.88 59.6-109.03 196.31-149.11 305.35-89.5 40.15 21.95 70.95 54.35 90.86 91.98l293.19 536.33 293.45-536.81c19.91-37.42 50.62-69.64 90.6-91.5 109.03-59.61 245.74-19.53 305.35 89.5 38.64 70.69 35.39 153.01-1.4 218.41z"/><path d="m3805.35 539.59v900c0 124.26-100.74 225-225 225-124.27 0-225-100.74-225-225v-900c0-124.27 100.73-225 225-225 124.26 0 225 100.73 225 225z"/><path d="m3053.41 1318.76-149.83-235.45c78.52-81.61 126.79-192.53 126.79-314.73 0-250.73-203.26-453.99-454-453.99h-437c-124.26 0-225 100.73-225 225v900c0 124.26 100.74 225 225 225 124.27 0 225-100.74 225-225v-217.01h94.44l214.95 337.78c66.72 104.83 205.79 135.74 310.63 69.02 104.83-66.71 135.74-205.78 69.02-310.62zm-689.04-617.17h212c37 0 67 29.99 67 66.99s-30 67-67 67h-212z"/><path d="m1206.03 350.71c-68.5-23.42-141.95-36.12-218.38-36.12h-387c-124.26 0-225 100.74-225 225v900c0 124.27 100.74 225 225 225h387c372.79 0 675-302.2 675-675 0-296.36-191-548.12-456.62-638.88zm-218.38 863.88h-162v-450h162c105.52 0 194.06 72.63 218.38 170.62 4.33 17.41 6.62 35.63 6.62 54.38 0 124.27-100.73 225-225 225z"/></g></svg>