<svg viewBox="0 0 7132.97 2000" xmlns="http://www.w3.org/2000/svg"><g fill="#fff"><path d="m6685.68 1471.09c0 106.86-86.63 193.5-193.5 193.5h-607.49c-124.27 0-225-100.74-225-225v-900c0-124.27 100.73-225 225-225h607.49c106.87 0 193.5 86.63 193.5 193.5s-86.63 193.5-193.5 193.5h-382.49v146.35h219.7a141.65 141.65 0 1 1 0 283.29h-219.7v146.36h382.49c106.87 0 193.5 86.63 193.5 193.5z"/><path d="m5436.48 650.07-490.58 897.4c-59.6 109-196.31 149.11-305.35 89.5a223.87 223.87 0 0 1 -90.59-91.5l-489.22-894.93a224.81 224.81 0 0 1 -1.66-218.88c59.6-109 196.31-149.11 305.35-89.5a223.91 223.91 0 0 1 90.86 92l293.19 536.33 293.45-536.81a223.9 223.9 0 0 1 90.6-91.5c109-59.61 245.74-19.53 305.35 89.5a224.82 224.82 0 0 1 -1.4 218.39z"/><path d="m3805.35 539.59v900c0 124.26-100.74 225-225 225s-225-100.74-225-225v-900c0-124.27 100.73-225 225-225s225 100.73 225 225z"/><path d="m3053.41 1318.76-149.83-235.45a452.47 452.47 0 0 0 126.79-314.73c0-250.73-203.26-454-454-454h-437c-124.26 0-225 100.73-225 225v900c0 124.26 100.74 225 225 225s225-100.74 225-225v-217h94.44l215 337.78c66.72 104.83 205.79 135.74 310.63 69s135.69-205.76 68.97-310.6zm-689-617.17h212a67 67 0 1 1 0 134h-212z"/><path d="m1206 350.7a673.77 673.77 0 0 0 -218.38-36.12h-387c-124.26 0-225 100.74-225 225v900c0 124.27 100.74 225 225 225h387c372.79 0 675-302.2 675-675 .03-296.36-190.97-548.12-456.62-638.88zm-218.35 863.88h-162v-450h162c105.52 0 194.06 72.63 218.38 170.62a225.09 225.09 0 0 1 6.62 54.38c0 124.27-100.73 225-225 225z"/></g></svg>