<svg enable-background="new 0 0 7132.97 2000" viewBox="0 0 7132.97 2000" xmlns="http://www.w3.org/2000/svg" xmlns:xlink="http://www.w3.org/1999/xlink"><linearGradient id="a"><stop offset="0" stop-color="#717171"/><stop offset="1" stop-color="#b2b2b2" stop-opacity="0"/></linearGradient><linearGradient id="b" gradientUnits="userSpaceOnUse" x1="5884.6929" x2="6685.6831" xlink:href="#a" y1="1471.092" y2="1471.092"/><linearGradient id="c" gradientUnits="userSpaceOnUse" x1="5884.6929" x2="6471.043" xlink:href="#a" y1="989.5871" y2="989.5871"/><linearGradient id="d" gradientUnits="userSpaceOnUse" x1="5884.6929" x2="6685.6831" xlink:href="#a" y1="508.092" y2="508.092"/><linearGradient id="e" gradientUnits="userSpaceOnUse" x1="4523.1836" x2="5420.3101" xlink:href="#a" y1="1454.3881" y2="557.2615"/><linearGradient id="f" gradientUnits="userSpaceOnUse" x1="2139.3728" x2="3088.6204" xlink:href="#a" y1="989.5906" y2="989.5906"/><linearGradient id="g" gradientUnits="userSpaceOnUse" x1="600.65" x2="1206.03" xlink:href="#a" y1="624.8941" y2="624.8941"/><linearGradient id="h" gradientUnits="userSpaceOnUse" x1="1322.8966" x2="961.2982" xlink:href="#a" y1="-402.6758" y2="1648.0503"/><path d="m6685.68 1471.09c0 106.86-86.63 193.5-193.5 193.5h-607.49v-387h607.49c106.87 0 193.5 86.63 193.5 193.5z" fill="#b2b2b2"/><path d="m6471.04 989.59c0 78.23-63.42 141.64-141.65 141.64h-444.7v-283.29h444.7c78.23 0 141.65 63.42 141.65 141.65z" fill="#b2b2b2"/><path d="m6685.68 508.09c0 106.86-86.63 193.5-193.5 193.5h-607.49v-387h607.49c106.87 0 193.5 86.63 193.5 193.5z" fill="#b2b2b2"/><path d="m6685.68 1471.09c0 106.86-86.63 193.5-193.5 193.5h-607.49v-387h607.49c106.87 0 193.5 86.63 193.5 193.5z" fill="url(#b)"/><path d="m6471.04 989.59c0 78.23-63.42 141.64-141.65 141.64h-444.7v-283.29h444.7c78.23 0 141.65 63.42 141.65 141.65z" fill="url(#c)"/><path d="m6685.68 508.09c0 106.86-86.63 193.5-193.5 193.5h-607.49v-387h607.49c106.87 0 193.5 86.63 193.5 193.5z" fill="url(#d)"/><path d="m6109.69 539.59v900c0 124.26-100.74 225-225 225-124.27 0-225-100.74-225-225v-900c0-124.27 100.73-225 225-225 124.26 0 225 100.73 225 225z" fill="#b2b2b2"/><path d="m5436.48 650.07-490.58 897.4-394.85-215.85 490.88-897.96c19.91-37.42 50.62-69.64 90.6-91.5 109.03-59.61 245.74-19.53 305.35 89.5 38.64 70.69 35.39 153.01-1.4 218.41z" fill="#b2b2b2"/><path d="m5436.48 650.07-490.58 897.4-394.85-215.85 490.88-897.96c19.91-37.42 50.62-69.64 90.6-91.5 109.03-59.61 245.74-19.53 305.35 89.5 38.64 70.69 35.39 153.01-1.4 218.41z" fill="url(#e)"/><g fill="#b2b2b2"><path d="m4945.9 1547.47c-59.6 109.04-196.31 149.11-305.35 89.5-39.98-21.86-70.68-54.08-90.59-91.5l-489.22-894.93c-37.04-65.47-40.4-148.02-1.66-218.88 59.6-109.03 196.31-149.11 305.35-89.5 40.15 21.95 70.95 54.35 90.86 91.98l488.95 894.45c37.04 65.47 40.4 148.02 1.66 218.88z"/><path d="m3805.35 539.59v900c0 124.26-100.74 225-225 225-124.27 0-225-100.74-225-225v-900c0-124.27 100.73-225 225-225 124.26 0 225 100.73 225 225z"/><path d="m2984.39 1629.38c-104.84 66.72-243.91 35.81-310.63-69.02l-286.25-449.82 379.65-241.6 286.25 449.82c66.72 104.84 35.81 243.91-69.02 310.62z"/><path d="m3030.37 768.58c0 250.74-203.26 454-454 454h-437v-387h437c37 0 67-30 67-67s-30-66.99-67-66.99h-437v-387h437c250.74 0 454 203.26 454 453.99z"/></g><path d="m2984.39 1629.38c-104.84 66.72-243.91 35.81-310.63-69.02l-214.95-337.78h-319.44v-387h437c37 0 66.99-29.99 67-66.99v-.01c0-37-30-66.99-67-66.99h-437v-387h437c250.74 0 454 203.26 454 453.99v.01c-.01 122.19-48.28 233.11-126.8 314.71l149.84 235.46c66.72 104.84 35.81 243.91-69.02 310.62z" fill="url(#f)"/><path d="m2364.37 539.59v900c0 124.26-100.73 225-225 225-124.26 0-225-100.74-225-225v-900c0-124.27 100.74-225 225-225 124.27 0 225 100.73 225 225z" fill="#b2b2b2"/><path d="m1662.65 989.58c0 372.8-302.21 675-675 675h-387v-450h387c124.27 0 225-100.73 225-225 0-18.75-2.29-36.97-6.62-54.38-24.32-97.99-112.86-170.62-218.38-170.62h-387v-450h387c76.43 0 149.88 12.7 218.38 36.12 265.62 90.76 456.62 342.52 456.62 638.88z" fill="#b2b2b2"/><path d="m1206.03 350.7v584.5c-24.32-97.99-112.86-170.62-218.38-170.62h-387v-450h387c76.43 0 149.88 12.7 218.38 36.12z" fill="url(#g)"/><path d="m1662.65 989.58c0 372.8-302.21 675-675 675h-387v-450h387c124.27 0 225-100.73 225-225 0-124.26-100.73-225-225-225h-387v-450h387c372.79 0 675 302.21 675 675z" fill="url(#h)"/><path d="m825.65 539.58v900c0 124.27-100.73 225-225 225-124.26 0-225-100.73-225-225v-900c0-124.26 100.74-225 225-225 124.27 0 225 100.74 225 225z" fill="#b2b2b2"/></svg>