<svg version="1" xmlns="http://www.w3.org/2000/svg" width="1045.333" height="1045.333" viewBox="0 0 784.000000 784.000000"><path d="M448.9 19.4c-.2.2-2.3.6-4.7 1-2.4.3-6.2 1.1-8.5 1.7-2.3.7-4.6 1.3-5.2 1.5-2.2.5-12.3 4.7-16 6.7-4.5 2.5-14.2 9.2-16.6 11.6-.9.9-3.1 3-5 4.7-3.6 3.4-4.8 4.7-9.4 10.9-1.6 2.2-3.3 4.2-3.6 4.5-2.7 2.1-12.3 25.3-13.5 32.5-.2 1.6-.7 4.3-1 6-1.6 9.2-.7 27.2 1.9 38 5.2 21.2 21.1 43.4 40 55.8 5.3 3.5 19.2 10.4 22.7 11.3 3.4.8 10.6 2.6 12.5 3 1.1.3 4.7.7 8 .9 3.3.2 6.2.5 6.5.6 1 .2 8.5-.2 13.5-.7 7.7-.9 17.3-3.3 24.5-6.1 6.8-2.8 18.3-9.1 18.8-10.5.2-.4.8-.8 1.3-.8 1.8 0 20.9-18.3 20.9-20.1 0-.3 1.1-1.9 2.4-3.4 1.4-1.6 3.2-4.6 4.2-6.7 1.3-2.9 2.2-3.8 3.6-3.5 1 .3 1.8.1 1.8-.5 0-.5.4-.7.9-.4.4.3 10.7.5 22.7.5 12 .1 26.6.1 32.4.2 5.8.1 11.2.1 12 0 4.7-.2 22 .1 25 .5 5.2.7 12.4 2.6 13.4 3.5.6.5 1.6.9 2.2.9.7 0 4.1 1.7 7.6 3.7 12.1 7.1 22.3 19.9 26.7 33.4 4.1 12.8 3.5 29.9-1.5 41.4-1 2.2-1.8 4.2-1.9 4.5 0 .3-1.7 3-3.6 6-8.2 12.7-21.1 21.9-36.4 26-4.1 1.1-31.1 1.4-142.5 1.5-136.6.2-137.5.2-139.7-1.8-1.3-1.1-2.3-2.4-2.3-2.9s-.9-1.8-2-3c-1-1.1-2.6-3.6-3.5-5.4-.9-1.9-2-3.4-2.5-3.4-.6 0-1-.4-1-.9 0-1-24.4-37.6-27.1-40.7-1.1-1.1-1.9-2.5-1.9-3.1 0-.7-.6-1.8-1.3-2.5-.6-.7-3.5-4.7-6.2-8.8-2.8-4.1-5.3-7.7-5.7-7.8-.5-.2-.8-.9-.9-1.5 0-.7-1.6-3.2-3.5-5.7s-3.7-5.3-4-6.3c-.4-.9-1-1.7-1.5-1.7s-.9-.7-.9-1.5-.4-1.5-1-1.5c-.5 0-1-.6-1-1.4 0-.8-.3-1.6-.7-1.8-1.1-.5-5.3-6.6-5.3-7.7 0-.5-.4-1.1-.8-1.3-1.1-.4-18.2-25.8-18.2-26.9 0-.5-.5-.9-1-.9-.6 0-1.5-1-2-2.3-.6-1.2-2.4-4-4.1-6.2-1.6-2.2-3.7-5.1-4.7-6.5-6.2-9.1-22.4-24.2-33.7-31.6-3.3-2.1-6.2-4.1-6.5-4.4-.3-.3-4.5-2.4-9.5-4.7-14.5-6.8-28.4-10.9-43.5-12.9-6.5-.8-37.1-1.3-38.5-.5-.5.3-2.7.7-4.8.9-2.1.2-8 1.4-13 2.8-5.1 1.3-10.2 2.6-11.3 2.9-3.1.7-16.6 6.5-18.2 7.7-.6.6-1.2.8-1.2.4 0-.3-3.5 1.5-7.7 4-18.7 11-30.9 22.1-47.1 42.9C19.8 143 8.6 166.4 5.5 179 1.4 195.4.6 203.1.7 221c0 14.9.4 17.4 4.8 37.5 1.1 4.7 6 18.1 7.2 19.6.7.8 1.3 2 1.3 2.5 0 2.1 9.1 18 14.2 24.9 8.1 11 26.2 29.5 28.8 29.5.4 0 1 .4 1.2.9.5 1.5 13.7 9.8 22.7 14.5 12.1 6.2 25 10.7 37.6 13.1 2.2.5 4.7 1 5.5 1.1 6.3 1.4 25.7 1.7 105.4 1.8l90.9.1 1.6 2.5c.8 1.4 1.8 2.7 2.1 3 .5.5 3 4.1 5.5 8.1.5.9 2.3 3.6 4 6l4 6c.5.9 2.9 4.4 5.3 7.7 2.3 3.4 4.2 6.5 4.2 7.1 0 .5.4 1.1.8 1.3.8.3 7.2 9.3 7.2 10 0 .2-48 .4-106.7.4-112.8.1-118.2.2-131.8 3.5-2.2.5-5.3 1.2-7 1.5-5.5 1-23.6 8.3-31.9 12.8-7.4 4-21.5 13.5-25.1 16.9-16.8 15.6-27.5 29.2-35.7 45.2-8 15.8-13.6 33.7-15.6 50-1.3 10.4-.5 38.3 1.3 44.5.2.8.6 2.8.9 4.3 2 11.6 13.7 41.3 16.8 42.5.4.2.8.9.8 1.6 0 1.1 7.4 12.3 11.9 17.9 3.4 4.3 17.8 18.5 22.6 22.3 2.8 2.1 5.1 4.2 5.3 4.6.2.5.9.8 1.6.8.7 0 2.1.9 3.1 2s2.2 2 2.6 2c.5 0 3.2 1.5 6.1 3.2 9.6 6 30.4 14.7 33.1 14 .4-.1 1.6.2 2.7.8 1 .5 3.5 1.3 5.5 1.6 2.1.3 4.7.8 5.9 1 8.5 1.7 15 2.3 27.1 2.3 16.3.1 20 .2 20.3.6.2.2 1.4 0 2.7-.5 1.3-.5 2.6-.6 2.9-.3.3.3 3.4.5 6.8.4 3.5 0 11-.1 16.8 0 5.8.1 11.2.1 12 0 4.2-.2 17.5 0 17.8.4.2.2 1.6 0 3.1-.5 1.6-.4 3.3-.5 3.9-.1.6.3 3.4 4.2 6.3 8.6 6.5 10.1 18.2 21.8 27.8 28 7.3 4.7 19.5 10.4 25.6 11.9 8.8 2.2 12.2 2.8 17.2 3 2.4 0 4.3.3 4.3.6 0 .9 8.9.3 23.5-1.5 1.1-.1 2.7-.5 3.5-.8.8-.3 4-1.3 7-2.2 18.2-5.7 35.6-17.9 46.6-33 2.4-3.3 4.8-6.5 5.3-7.1 2-2.5 9-18.2 10.6-23.9 4.5-16 5-32 1.4-48.5-2-9.1-9.6-26.7-13.5-31.1-.8-.8-1.4-1.9-1.4-2.2 0-2.3-17.2-19.3-24.3-24-11.4-7.6-26.4-13.6-37.8-15.3-6.1-.9-25.6-1-30.9-.2-18.7 2.9-36.9 12.1-51.3 25.8-5.1 4.9-14.7 17.1-14.7 18.8 0 .6-.3 1.2-.7 1.4-.5.2-1.5 1.3-2.3 2.6l-1.5 2.3-47.7-.1c-43.9 0-48.2-.2-55.3-2-11.1-2.8-18.9-7.4-27.5-16-13-13-18.8-28.2-17.7-46.4 1.6-26.7 19-47.8 45.5-55.3 5.1-1.4 20.2-1.6 143.4-1.7l137.8-.1 19.4 29c10.7 15.9 20.6 30.6 21.9 32.5 1.3 1.9 3.7 5.5 5.3 8 1.6 2.5 3.1 4.7 3.4 5 .3.3 5 7.2 10.5 15.5 5.4 8.2 10.3 15.1 10.7 15.3.4.2.8.8.8 1.2 0 1 17.4 26.5 21.3 31.2.9 1.2 1.7 2.4 1.7 2.8 0 .4.8 1.6 1.8 2.8.9 1.1 2.6 3.3 3.7 4.8 6.7 9.4 18 21 27.5 28.4 2.5 1.9 4.7 3.8 4.8 4.2.2.5.9.8 1.6.8.7 0 2.1.9 3.1 2s2.3 2 2.8 2c.6 0 1.8.6 2.6 1.4 2.4 2.2 18.7 10 26.8 12.9 7.5 2.7 18.1 5.7 22.3 6.2 1.4.2 4.1.6 6 1 7.6 1.4 25.7 1.9 33.5 1 1.7-.2 5.3-.6 8.1-1 5-.6 6.9-.9 11.7-2.1 1.2-.3 3.2-.7 4.4-1 10.8-2.2 42.3-16.1 42.3-18.6 0-.4.5-.8 1.1-.8 2.9 0 25-19.1 32.6-28.3 3.6-4.3 11.9-15.9 14.1-19.7 5.1-8.6 13.2-27.2 13.7-31 0-.3.3-1 .6-1.5.7-1 3.3-12.2 4.4-18.4 1.3-7.6 1.7-13.1 1.7-25.1 0-14.8-.2-16.4-3.8-35-.3-1.4-1.9-6.3-3.5-11-1.7-4.7-3.1-9-3.3-9.5-1.4-5.2-12.3-24.8-17-30.7-1.1-1.4-3.2-4.1-4.6-5.9-7.6-10.1-22.7-23.8-34.4-31.3-10.2-6.5-27.4-14.9-32.5-16-.9-.2-2.3-.6-3.1-.9-2.7-1-8.7-2.8-11.1-3.2-1.3-.3-3.5-.7-4.9-1-3.3-.7-8.1-1.4-15.5-2.1-3.3-.4-46.5-.7-96.1-.8-92.7-.1-93.4-.1-93.4-3.8 0-1.1-4.2-7.2-5.2-7.6-.5-.2-.8-.7-.8-1.2 0-.4-4.9-8-11-16.9-6-8.9-11.8-17.7-12.9-19.4l-2-3.2h106.7c58.7-.1 110.5-.4 115.2-.8 10-.8 27-4.6 35.5-7.8 3.3-1.3 6.2-2.4 6.5-2.4 1.7-.2 13.4-6.2 20.4-10.4 19-11.5 31.5-23.5 47.4-45.6 6.8-9.5 16.9-33.5 20.1-48 3.9-17.3 4.5-38.3 1.7-57.3-2.6-17.3-14.1-46-23.3-58.1-.7-.9-3.3-4.4-5.8-7.8-8.7-11.8-29.7-30.6-40-35.8-1.6-.9-4.9-2.7-7.3-4.1C696.3 85 676.3 77 673.6 77c-1.2 0-2.6-.4-3.2-.8-.5-.5-4-1.4-7.9-2.1-3.8-.6-8.6-1.4-10.5-1.8-1.9-.3-26.9-.8-55.5-1-34.1-.3-52.1-.8-52.4-1.4-1.2-3.6-11.4-17.1-17.2-22.9-14.2-14.1-29.2-22-50.4-26.6-3.4-.7-27-1.6-27.6-1zM168.4 161c12.8 4.2 20 10.5 31.7 27.4 3 4.5 7.2 10.5 9.2 13.3 2 2.9 3.7 5.7 3.7 6.2s.4 1.1.8 1.3c.5.1 6.9 9.3 14.2 20.3 7.4 11 13.7 20.1 14.2 20.3.4.2.8.9.8 1.6 0 .7.9 2.1 2 3.1s2 2.2 2 2.6c0 .4 3.2 5.3 7 10.9 3.9 5.6 7 10.5 7 10.8 0 .8-122.1.7-125 0-.8-.2-2.1-.7-2.8-1.2-.7-.4-1.6-.6-1.9-.3-.7.8-12.7-4.8-17.9-8.3-11.6-8-19.4-18.6-23.9-32.5-1.6-4.6-2-8.6-1.9-17.5 0-9.7.5-15.6 1.5-16.8.1-.1.2-.5.4-1 .1-.4.7-2 1.3-3.5.7-1.6 1.2-3.4 1.2-4.1 0-.8.7-1.9 1.5-2.6.8-.7 1.5-1.8 1.5-2.4 0-1.8 3.8-6.4 11.1-13.6 8.6-8.5 18.2-13.4 32.4-16.4 1.1-.2 6.8-.3 12.6-.1 7.7.2 12.4.8 17.3 2.5zm475.1 345.3c1.1.1 2.6.7 3.3 1.1.7.4 1.6.6 1.8.3.6-.6 8.7 2.7 15.4 6.2 6 3.2 17.9 15.2 21.7 22.1 9.2 16.2 10.5 35.6 3.6 53-1.4 3.6-4 8.5-5.6 11-3.3 4.8-14.7 16.7-14.7 15.3 0-.4-.4-.3-.8.3-1.5 2.5-13.5 8.1-21.3 10.1-5.2 1.3-22.9 1.2-27.4-.1-2.5-.8-4.7-1.4-4.8-1.4-.1 0-1.9-.7-4.1-1.6-2.1-.9-4.1-1.6-4.4-1.6-1.1 0-12.7-8.4-15.6-11.4-1.8-1.7-7-8.5-11.6-15.1s-8.7-12.2-9-12.5c-.5-.5-4.4-6.3-31.3-46.5-8.9-13.2-16.4-24.2-16.7-24.5-.5-.5-3-4.8-3-5.3 0-.4 122.1.2 124.5.6z"/></svg>