<svg version="1" xmlns="http://www.w3.org/2000/svg" width="2045.333" height="2045.333" viewBox="0 0 1534.000000 1534.000000"><path d="M337.8 92.5c-.2.2-4.1.6-8.8.9-10.4.8-12.4 1.1-27.5 4.3-12.2 2.5-25.4 6.3-31.2 8.9-1.7.8-3.6 1.4-4.2 1.4-.6 0-1.9.4-2.9 1-.9.5-6.4 3.2-12.2 5.9-46.8 22.2-84.8 61.1-107.1 109.6-7.9 17.1-15.8 43.4-17.5 58-.3 3.3-.8 6.3-1 6.7-.2.3-.7 5.7-1.1 12-.9 15-.9 918.4 0 931.3 1.6 21.9 4.4 36.1 11.5 57.5 14.6 44.2 45.2 84.8 84.9 112.4 7.3 5 22.5 14.1 29.3 17.3 18.5 8.9 33.1 13.7 57 18.9 1.4.3 4.1.8 6 1 1.9.2 4.5.6 5.6.9 6.9 1.6 41.5 1.8 226.4 1.9 181.5 0 225-.3 243.5-1.9 16.5-1.5 30.2-3 43.5-5 1.4-.2 4.5-.7 7-1 4-.5 21.5-3.6 29.5-5.1 9.7-1.8 39.9-9.2 52.9-12.9 14.3-4.1 45.8-14.4 50.1-16.4 1.1-.5 7-2.8 13-5.2 6.1-2.3 13.5-5.3 16.5-6.6 3-1.4 6.9-3.1 8.5-3.8 9.6-4.2 47.4-23.1 55.5-27.7 46.4-26.5 86-55 124-89.2 10.4-9.4 44.3-44 54-55.1 54.3-62.1 96.4-132.2 123.9-206 2.9-7.7 5.9-15.6 6.6-17.5 4.9-12.6 18.4-60.1 21.1-74.4.3-1.7 1.4-6.7 1.9-8.6.1-.3.5-2.8 1-5.5 1-5.7.9-5 1.8-9 .4-1.7.9-4.6 1.2-6.5.3-1.9 1-6 1.5-9s1.2-7.8 1.6-10.5c.3-2.8.8-5.8 1-6.9.2-1 .6-4.4.9-7.5.4-3.1.8-6.6 1-7.8.2-1.2.6-5.7 1-10s.9-9.4 1.1-11.3c2.3-24.1 2.3-89.9 0-109.5-.2-1.7-.7-6.2-1-10-.7-7.8-1.1-11.4-2.2-19.5-.4-3-.8-6.4-.9-7.5-4.6-37.7-17.4-90.9-31.7-131.5-15.5-44.1-33.8-82.8-61.5-129.5-8.9-15-39.8-59.3-44.3-63.5-.3-.3-3-3.6-6-7.5-7.1-9.1-24.4-28.9-34-38.9-19.8-20.8-44.1-43.6-60.4-56.8-46.5-37.8-85-62.6-135.2-87.2-43.5-21.4-89.9-38.1-137.6-49.6-19.2-4.6-17.8-4.3-38.7-8-15-2.7-30-4.9-45.6-6.6-3.3-.3-6.7-.8-7.6-.9-.9-.2-6.7-.6-13-1s-12.3-1-13.4-1.3c-2.1-.5-437.1-1.2-437.7-.7zM756 543.4c32 3.9 54.9 10.5 79.6 22.7 13.5 6.7 30.9 17.8 41.8 26.7 8.6 7.1 24.8 23.1 30.1 29.7 2.2 2.7 4.8 5.9 5.8 7 4.2 4.6 17.3 25.3 22.7 35.9 10.9 21.4 18.9 46.1 21.6 66.1.3 2.7.8 5.2.9 5.5.2.3.7 4.6 1.1 9.5 1.3 15.1.7 40.3-1.1 51.5-.2 1.4-.6 4.2-.9 6.2-5.7 38-24.8 78.6-52.1 110.7-34.4 40.3-88.8 69.5-141 75.6-2.7.3-7 .8-9.5 1.1-8.4 1.1-180.1 1-180.8-.1-.4-.5-.7-101.6-.7-224.5V543.5l2.4-.5c3.7-.8 173.8-.4 180.1.4z"/></svg>